<svg id="elo-1" xmlns="http://www.w3.org/2000/svg" width="84.653" height="40" viewBox="0 0 84.653 40">
  <path id="Caminho_76" data-name="Caminho 76" d="M0,0H84.653V40H0Z"/>
  <path id="Caminho_77" data-name="Caminho 77" d="M13.534,10.721a8.172,8.172,0,0,1,10.58,6.112l5.594-1.141A13.875,13.875,0,0,0,11.724,5.311Z" transform="translate(3.908 1.533)" fill="#ffcb05"/>
  <path id="Caminho_78" data-name="Caminho 78" d="M9.3,27.978,13.084,23.7a8.156,8.156,0,0,1,0-12.217L9.3,7.2a13.869,13.869,0,0,0,0,20.773" transform="translate(1.541 2.402)" fill="#00a4e0"/>
  <path id="Caminho_79" data-name="Caminho 79" d="M24.114,16.221a8.158,8.158,0,0,1-7.991,6.521,8.05,8.05,0,0,1-2.589-.42l-1.81,5.417a13.889,13.889,0,0,0,17.985-10.37Z" transform="translate(3.908 5.407)" fill="#ef4123"/>
  <path id="Caminho_80" data-name="Caminho 80" d="M29.2,23.827A9.891,9.891,0,0,1,28.62,22.7a8.235,8.235,0,0,1-.181-6.228,8.222,8.222,0,0,1,4.425-4.83,8.516,8.516,0,0,1,7.821.568,8.35,8.35,0,0,1,3.491,4.215c.105.25.2.514.293.742Zm5.1-8.875a4.206,4.206,0,0,0-2.553,4.472l7.676-3.306A4.077,4.077,0,0,0,34.3,14.952Zm6.079,7.191a0,0,0,0,0,0,0l-.159-.109a4.516,4.516,0,0,1-2.075,1.738,4.033,4.033,0,0,1-4.45-.449l-.105.159a0,0,0,0,0,0,0L31.637,26.4a8.44,8.44,0,0,0,1.546.847,8.446,8.446,0,0,0,10.16-3.121ZM49.8,7.359v16.2l2.52,1.021-1.43,3.338L48.112,26.76a3.146,3.146,0,0,1-1.369-1.151,3.615,3.615,0,0,1-.536-2.006V7.359Zm6.525,12.076A4.58,4.58,0,0,1,57.9,15.977l-2.585-2.882a8.463,8.463,0,0,0-.007,12.673l2.582-2.882a4.579,4.579,0,0,1-1.564-3.451Zm4.591,4.595a4.611,4.611,0,0,1-1.456-.239l-1.235,3.668a8.472,8.472,0,0,0,10.986-6.318l-3.795-.775a4.588,4.588,0,0,1-4.5,3.664Zm.011-13.057a8.535,8.535,0,0,0-2.683.431l1.224,3.672a4.592,4.592,0,0,1,5.953,3.447l3.795-.768a8.468,8.468,0,0,0-8.288-6.782Z" transform="translate(9.305 2.453)" fill="#fff"/>
</svg>
