<svg xmlns="http://www.w3.org/2000/svg" width="27.795" height="24.706" viewBox="0 0 27.795 24.706">
  <path id="Icon_awesome-hand-holding-heart" data-name="Icon awesome-hand-holding-heart" d="M13.284,12.087a.841.841,0,0,0,1.23,0l5.255-5.51A4,4,0,0,0,19.5.844a3.668,3.668,0,0,0-5.062.372l-.54.565-.536-.56A3.664,3.664,0,0,0,8.3.844a4,4,0,0,0-.27,5.732Zm13.993,3.744a1.6,1.6,0,0,0-2.056,0L20.763,19.4a3.072,3.072,0,0,1-1.93.676H13.125a.772.772,0,0,1,0-1.544H16.9a1.606,1.606,0,0,0,1.607-1.284,1.546,1.546,0,0,0-1.525-1.8H9.265a5.679,5.679,0,0,0-3.576,1.269L3.445,18.529H.772A.774.774,0,0,0,0,19.3v4.632a.774.774,0,0,0,.772.772H17.989a3.092,3.092,0,0,0,1.93-.676l7.3-5.839A1.543,1.543,0,0,0,27.277,15.831Z" transform="translate(0 0.002)" fill="#ff273f"/>
</svg>
