<svg xmlns="http://www.w3.org/2000/svg" width="31.5" height="22.5" viewBox="0 0 31.5 22.5">
  <g id="Icon_ionic-md-cash" data-name="Icon ionic-md-cash" transform="translate(-2.25 -6.75)">
    <path id="Caminho_99" data-name="Caminho 99" d="M2.25,6.75v18h31.5v-18ZM13.535,22.5H7.882A3.379,3.379,0,0,0,4.5,19.118V13.5A4.5,4.5,0,0,0,9,9h4.535a10.5,10.5,0,0,0-2.285,6.75A10.5,10.5,0,0,0,13.535,22.5ZM31.5,19.118A3.4,3.4,0,0,0,28.125,22.5h-5.66a10.5,10.5,0,0,0,2.285-6.75A10.5,10.5,0,0,0,22.465,9H27a4.5,4.5,0,0,0,4.5,4.5Z" fill="#ff273f"/>
    <path id="Caminho_100" data-name="Caminho 100" d="M2.25,27h31.5v2.25H2.25Z" fill="#ff273f"/>
  </g>
</svg>
