<svg xmlns="http://www.w3.org/2000/svg" width="26.763" height="22.248" viewBox="0 0 26.763 22.248">
  <path id="Icon_awesome-store" data-name="Icon awesome-store" d="M26.16,5.153,23.34.652A1.391,1.391,0,0,0,22.162,0H4.607A1.391,1.391,0,0,0,3.43.652L.61,5.153A3.877,3.877,0,0,0,3.165,11.08a4.516,4.516,0,0,0,.6.039A4.291,4.291,0,0,0,6.967,9.681a4.294,4.294,0,0,0,6.414,0,4.294,4.294,0,0,0,6.414,0A4.3,4.3,0,0,0,23,11.119a4.467,4.467,0,0,0,.6-.039A3.873,3.873,0,0,0,26.16,5.153Zm-3.15,7.361a5.513,5.513,0,0,1-1.282-.165v4.337H5.042V12.349a5.756,5.756,0,0,1-1.282.165,5.863,5.863,0,0,1-.782-.052,5.465,5.465,0,0,1-.713-.156v8.551a1.389,1.389,0,0,0,1.39,1.39H23.122a1.389,1.389,0,0,0,1.39-1.39V12.306a4.437,4.437,0,0,1-.713.156A6.043,6.043,0,0,1,23.009,12.514Z" transform="translate(-0.004)" fill="#ff273f"/>
</svg>
