<svg xmlns="http://www.w3.org/2000/svg" width="25.769" height="25.769" viewBox="0 0 25.769 25.769">
  <path id="Icon_awesome-medal" data-name="Icon awesome-medal" d="M11.261,6.581,7.782.782A1.61,1.61,0,0,0,6.4,0H.807a.805.805,0,0,0-.66,1.267l5.6,8A10.416,10.416,0,0,1,11.261,6.581ZM24.962,0H19.368a1.61,1.61,0,0,0-1.381.782l-3.479,5.8a10.419,10.419,0,0,1,5.514,2.687l5.6-8A.805.805,0,0,0,24.962,0ZM12.884,8.053a8.858,8.858,0,1,0,8.858,8.858A8.858,8.858,0,0,0,12.884,8.053Zm4.656,7.915-1.909,1.86.451,2.628a.578.578,0,0,1-.838.608l-2.361-1.241-2.36,1.241a.578.578,0,0,1-.838-.608l.451-2.628-1.909-1.86a.578.578,0,0,1,.32-.986l2.639-.385,1.179-2.392a.579.579,0,0,1,1.037,0L14.582,14.6l2.639.385A.578.578,0,0,1,17.541,15.967Z" transform="translate(0)" fill="#ff273f"/>
</svg>
