<svg xmlns="http://www.w3.org/2000/svg" width="27.456" height="21.355" viewBox="0 0 27.456 21.355">
  <path id="Icon_awesome-credit-card" data-name="Icon awesome-credit-card" d="M0,21.317A2.289,2.289,0,0,0,2.288,23.6h22.88a2.289,2.289,0,0,0,2.288-2.288V12.927H0Zm9.152-3.241a.574.574,0,0,1,.572-.572h6.483a.574.574,0,0,1,.572.572v1.907a.574.574,0,0,1-.572.572H9.724a.574.574,0,0,1-.572-.572Zm-6.1,0a.574.574,0,0,1,.572-.572H7.055a.574.574,0,0,1,.572.572v1.907a.574.574,0,0,1-.572.572H3.623a.574.574,0,0,1-.572-.572ZM27.456,4.538V6.826H0V4.538A2.289,2.289,0,0,1,2.288,2.25h22.88A2.289,2.289,0,0,1,27.456,4.538Z" transform="translate(0 -2.25)" fill="#ff273f"/>
</svg>
