<svg id="mastercard-2" xmlns="http://www.w3.org/2000/svg" width="51" height="39.677" viewBox="0 0 51 39.677">
  <path id="Caminho_81" data-name="Caminho 81" d="M49.989,39.135v.1h.1a.1.1,0,0,0,.051-.013.045.045,0,0,0,.019-.039.044.044,0,0,0-.019-.038.091.091,0,0,0-.051-.013h-.1Zm.1-.072a.176.176,0,0,1,.114.033.11.11,0,0,1,.04.09.1.1,0,0,1-.032.079.157.157,0,0,1-.091.038l.127.145h-.1l-.117-.144H49.99v.144h-.082v-.386h.178Zm-.025.519a.306.306,0,0,0,.125-.025.328.328,0,0,0,.1-.069.322.322,0,0,0,.069-.1.324.324,0,0,0-.171-.423.321.321,0,0,0-.125-.024.334.334,0,0,0-.127.024.326.326,0,0,0-.1.069.329.329,0,0,0-.068.357.3.3,0,0,0,.068.1.327.327,0,0,0,.1.069.317.317,0,0,0,.127.026m0-.739a.427.427,0,0,1,.3.122.411.411,0,0,1,.09.455.431.431,0,0,1-.09.132.455.455,0,0,1-.134.089.416.416,0,0,1-.165.033.423.423,0,0,1-.167-.033.435.435,0,0,1-.135-.089.431.431,0,0,1-.089-.137.411.411,0,0,1,.09-.455.4.4,0,0,1,.135-.089.423.423,0,0,1,.167-.033M11.019,37.355a1.267,1.267,0,1,1,1.269,1.34,1.256,1.256,0,0,1-1.269-1.34m3.388,0V35.262H13.5v.51a1.586,1.586,0,0,0-1.322-.613,2.2,2.2,0,0,0,0,4.4,1.587,1.587,0,0,0,1.322-.613v.508h.909V37.355Zm30.747,0a1.267,1.267,0,1,1,1.27,1.34,1.256,1.256,0,0,1-1.27-1.34m3.389,0V33.582h-.911v2.19a1.586,1.586,0,0,0-1.322-.613,2.2,2.2,0,0,0,0,4.4,1.587,1.587,0,0,0,1.322-.613v.508h.911ZM25.7,35.972a1.039,1.039,0,0,1,1.059,1.015H24.589A1.078,1.078,0,0,1,25.7,35.972m.018-.816a2.2,2.2,0,0,0,.061,4.4,2.542,2.542,0,0,0,1.715-.586l-.446-.674a2,2,0,0,1-1.217.438A1.162,1.162,0,0,1,24.58,37.7h3.107c.009-.113.018-.227.018-.35a2.008,2.008,0,0,0-1.987-2.2m10.987,2.2a1.267,1.267,0,1,1,1.269,1.34,1.256,1.256,0,0,1-1.269-1.34m3.388,0V35.262h-.909v.51a1.587,1.587,0,0,0-1.322-.613,2.2,2.2,0,0,0,0,4.4,1.588,1.588,0,0,0,1.322-.613v.508h.91V37.355Zm-8.527,0a2.114,2.114,0,0,0,2.232,2.2,2.188,2.188,0,0,0,1.5-.5l-.437-.736a1.839,1.839,0,0,1-1.1.377,1.342,1.342,0,0,1,0-2.68,1.844,1.844,0,0,1,1.1.377l.437-.736a2.19,2.19,0,0,0-1.5-.5,2.114,2.114,0,0,0-2.233,2.2m11.731-2.2a1.235,1.235,0,0,0-1.1.613v-.507h-.9v4.185H42.2V37.1c0-.692.3-1.077.892-1.077a1.475,1.475,0,0,1,.569.105l.28-.858a1.935,1.935,0,0,0-.648-.114m-24.391.438a3.129,3.129,0,0,0-1.707-.438c-1.06,0-1.743.508-1.743,1.34,0,.682.508,1.1,1.444,1.235l.43.061c.5.07.735.2.735.438,0,.324-.331.508-.954.508a2.23,2.23,0,0,1-1.392-.438l-.428.71a3.019,3.019,0,0,0,1.812.543c1.209,0,1.909-.569,1.909-1.366,0-.736-.551-1.12-1.462-1.252l-.429-.062c-.394-.051-.71-.13-.71-.411,0-.306.3-.49.8-.49a2.7,2.7,0,0,1,1.3.359l.394-.736Zm11.742-.437a1.232,1.232,0,0,0-1.1.613v-.509h-.9v4.185h.91V37.1c0-.692.3-1.077.892-1.077a1.475,1.475,0,0,1,.569.105l.28-.858a1.935,1.935,0,0,0-.648-.114m-7.765.105H21.394V33.993h-.92v1.269h-.849v.832h.849V38c0,.971.377,1.549,1.453,1.549a2.138,2.138,0,0,0,1.138-.324l-.263-.779a1.684,1.684,0,0,1-.806.237c-.455,0-.6-.28-.6-.7V36.095h1.488Zm-13.6,4.186V36.821a1.558,1.558,0,0,0-1.646-1.663A1.62,1.62,0,0,0,6.16,35.9a1.536,1.536,0,0,0-1.383-.745,1.384,1.384,0,0,0-1.226.621v-.517H2.64v4.185h.918v-2.32a.98.98,0,0,1,1.025-1.112c.6,0,.91.394.91,1.1v2.329h.92v-2.32a.987.987,0,0,1,1.024-1.112c.621,0,.918.394.918,1.1v2.329Z" fill="#fff"/>
  <path id="Caminho_82" data-name="Caminho 82" d="M50.508,25.528v-.612h-.159l-.184.42-.183-.42h-.16v.612h.113v-.461l.172.4h.117l.172-.4v.462h.112Zm-1.011,0v-.507h.2v-.1H49.18v.1h.2v.507H49.5Z" fill="#f79410"/>
  <path id="Caminho_83" data-name="Caminho 83" d="M32.4,28.152H18.605V3.369H32.4Z" fill="#ff5f00"/>
  <path id="Caminho_84" data-name="Caminho 84" d="M19.48,15.761A15.735,15.735,0,0,1,25.5,3.37a15.761,15.761,0,1,0,0,24.783,15.735,15.735,0,0,1-6.02-12.391" fill="#eb001b"/>
  <path id="Caminho_85" data-name="Caminho 85" d="M51,15.761A15.76,15.76,0,0,1,25.5,28.153a15.763,15.763,0,0,0,0-24.783A15.76,15.76,0,0,1,51,15.761" fill="#f79e1b"/>
</svg>
